# xmcd CD database file generated by OrangeCD 6.5
#
# Track frame offsets:
#	150
#	2966
#	17198
#	26186
#	39473
#	51748
#	63023
#	66256
#	71854
#	80025
#	89938
#	98338
#	107038
#	115725
#	124407
#
# Disc length: 1795 seconds
#
# Revision: 0
# Processed by: cddbd v1.5.2PL0 Copyright (c) Steve Scherf et al.
# Submitted via: OrangeCD 6.5
#
DISCID=db07010f
DTITLE=Alexandru Andries - Excelsior 03.12.2012
DYEAR=2013
DGENRE=
TTITLE0=Intro
TTITLE1=Fericit
TTITLE2=Ana Maria
TTITLE3=Blues cu compresor
TTITLE4=Alcool
TTITLE5=Fata din tinutul de nord
TTITLE6=Vorbe, vorbe, vorbe
TTITLE7=Femei pe zi ploiasa nr. 12 and 35
TTITLE8=La noi
TTITLE9=Am sa ma simt singur daca pleci
TTITLE10=Autostrada 61
TTITLE11=Tu chiar asa arati?
TTITLE12=Cu ochii inchisi
TTITLE13=Blocaj rutier
TTITLE14=A fost odata ca-n povesti
EXTD=
EXTT0=
EXTT1=
EXTT2=
EXTT3=
EXTT4=
EXTT5=
EXTT6=
EXTT7=
EXTT8=
EXTT9=
EXTT10=
EXTT11=
EXTT12=
EXTT13=
EXTT14=
PLAYORDER=
